<?xml version="1.0" encoding="UTF-8" standalone="no"?>
<svg
   xmlns:dc="http://purl.org/dc/elements/1.1/"
   xmlns:cc="http://creativecommons.org/ns#"
   xmlns:rdf="http://www.w3.org/1999/02/22-rdf-syntax-ns#"
   xmlns:svg="http://www.w3.org/2000/svg"
   xmlns="http://www.w3.org/2000/svg"
   xmlns:sodipodi="http://sodipodi.sourceforge.net/DTD/sodipodi-0.dtd"
   xmlns:inkscape="http://www.inkscape.org/namespaces/inkscape"
   viewBox="0 0 48 48"
   version="1.1"
   id="svg6"
   sodipodi:docname="log-in.svg"
   width="48"
   height="48"
   inkscape:version="0.92.4 (5da689c313, 2019-01-14)">
  <metadata
     id="metadata10">
    <rdf:RDF>
      <cc:Work
         rdf:about="">
        <dc:format>image/svg+xml</dc:format>
        <dc:type
           rdf:resource="http://purl.org/dc/dcmitype/StillImage" />
        <dc:title></dc:title>
      </cc:Work>
    </rdf:RDF>
  </metadata>
  <sodipodi:namedview
     pagecolor="#ffffff"
     bordercolor="#666666"
     borderopacity="1"
     objecttolerance="10"
     gridtolerance="10"
     guidetolerance="10"
     inkscape:pageopacity="0"
     inkscape:pageshadow="2"
     inkscape:window-width="1373"
     inkscape:window-height="740"
     id="namedview8"
     showgrid="false"
     inkscape:zoom="7.375"
     inkscape:cx="17.694915"
     inkscape:cy="16"
     inkscape:window-x="0"
     inkscape:window-y="0"
     inkscape:window-maximized="0"
     inkscape:current-layer="svg6" />
  <defs
     id="defs3051">
    <style
       type="text/css"
       id="current-color-scheme">
      .ColorScheme-Text {
        color:#232629;
      }
      </style>
  </defs>
  <path
     style="color:#232629;fill:currentColor;fill-opacity:1;stroke:none;stroke-width:1.66666663"
     d="M 24,4 A 20,20 0 0 1 44,24 20,20 0 0 1 24,44 20,20 0 0 1 4,24 20,20 0 0 1 24,4 Z m 0,1.666666 A 18.333333,18.333333 0 0 0 5.6666667,24 18.333333,18.333333 0 0 0 24,42.333333 18.333333,18.333333 0 0 0 42.333333,24 18.333333,18.333333 0 0 0 24,5.666666 Z m -5.449218,5 L 32.333333,24 18.550782,37.333333 17.333333,36.154948 29.898437,24 17.333333,11.845052 Z"
     class="ColorScheme-Text"
     id="path4"
     inkscape:connector-curvature="0" />
</svg>
